<svg width="30" height="29" viewBox="0 0 30 29" fill="none" xmlns="http://www.w3.org/2000/svg">
<path fill-rule="evenodd" clip-rule="evenodd" d="M10.6656 0.000479312H10.4751C10.4751 9.67739 10.4751 19.3288 10.4739 28.9851H18.5617V28.7522V7.97298C18.5617 7.9576 18.5615 7.94216 18.5613 7.92669V7.92667V7.92665C18.5606 7.87504 18.56 7.82321 18.5665 7.77282C18.6927 6.86057 19.4521 6.20307 20.3753 6.20307H28.7408H29.0271C29.0211 5.98223 29.0186 5.76361 29.0161 5.54678C29.0105 5.06565 29.0051 4.59332 28.9616 4.12503C28.8621 3.04658 28.3866 2.13069 27.6163 1.36886C26.7028 0.46631 25.6001 0.00533157 24.3178 0.00411847C20.7787 -0.000599148 17.2388 -0.000179716 13.6993 0.000239668L10.6656 0.000479312ZM20.3413 22.8019V28.9851L20.3745 28.9875C20.4104 28.9902 20.4398 28.9924 20.4698 28.9924C20.8188 28.9924 21.1677 28.9927 21.5166 28.9931L21.5224 28.9931C22.4878 28.994 23.4531 28.995 24.4185 28.9888C24.6781 28.9863 24.9413 28.9597 25.1961 28.9087C26.499 28.6491 27.5168 27.9552 28.2507 26.8513C28.7286 26.1319 28.9798 25.3325 29.004 24.4687C29.015 24.0959 29.0124 23.7225 29.0099 23.3492V23.3492V23.3492V23.3492V23.3491V23.3491V23.3491V23.3489V23.3488C29.0088 23.1867 29.0077 23.0246 29.0077 22.8626C29.0077 22.8477 29.0032 22.8328 28.999 22.8184L28.9989 22.8183L28.9989 22.8183L28.9989 22.8182L28.9989 22.8181C28.9972 22.8126 28.9956 22.8072 28.9943 22.8019H20.3413ZM8.68096 28.9851L8.65268 28.9878C8.62686 28.9904 8.60626 28.9924 8.58633 28.9924C8.17412 28.992 7.76179 28.9941 7.34943 28.9962H7.34932H7.34921H7.3491H7.34899H7.34887C6.36221 29.0011 5.37531 29.0061 4.389 28.9778C3.46947 28.9512 2.63243 28.6139 1.8985 28.0523C0.840679 27.2431 0.198947 26.1816 0.06308 24.8545C0.0155033 24.3913 0.0121486 23.9234 0.00875808 23.4506C0.0072209 23.2362 0.00567636 23.0208 0 22.8044H8.68096V28.9851ZM8.68457 6.19093V0.00896783L8.65159 0.00629558C8.62088 0.00373663 8.59632 0.00168951 8.57175 0.00168951L7.79174 0.00159222C6.75286 0.00139782 5.71445 0.0012035 4.67527 0.00411439C4.49815 0.00532749 4.32104 0.0223106 4.14393 0.0417202C3.2341 0.138768 2.42375 0.489356 1.72985 1.07407C0.615014 2.01301 0.0351508 3.22126 0.0181674 4.68669C0.0139721 5.03238 0.0150002 5.37807 0.0160331 5.72536C0.0164936 5.88019 0.016955 6.03533 0.016955 6.19093H8.68457ZM0.0218621 21.0029V15.4032H8.68341V21.0029H0.0218621ZM8.68216 13.5981V7.99603H0.0242541V13.5981H8.68216ZM20.3413 21.0017V15.4008H29.0052V21.0017H20.3413ZM29.0077 13.5945V7.99239H20.3461V13.5945H29.0077Z" fill="#BDC0C8"/>
</svg>
