<svg width="24" height="24" viewBox="0 0 24 24" fill="none" xmlns="http://www.w3.org/2000/svg">
<path d="M1.61114 10.75H2.73791C3.07404 9.96875 3.56295 9.27734 4.16644 8.69922L3.44454 5.75H4.66681C5.78977 5.75 6.78287 6.27734 7.45511 7.08984C7.7454 7.04688 8.03187 7 8.33362 7H13.2227C16.1791 7 18.6427 9.14844 19.2118 12H20.8619C21.4272 12 21.8741 11.4727 21.7595 10.875C21.6755 10.4297 21.2668 10.125 20.8237 10.125H20.7855C20.6595 10.125 20.5563 10.0195 20.5563 9.89062V9.10937C20.5563 8.98047 20.6595 8.875 20.7855 8.875C21.8741 8.875 22.8443 9.67188 22.9818 10.7734C23.1498 12.1094 22.1338 13.25 20.8619 13.25H19.3341C19.3341 15.2891 18.3639 17.082 16.8895 18.2227V21.375C16.8895 21.7187 16.6145 22 16.2784 22H13.8338C13.4977 22 13.2227 21.7187 13.2227 21.375V19.5H8.33362V21.375C8.33362 21.7187 8.05861 22 7.72249 22H5.27795C4.94182 22 4.66681 21.7187 4.66681 21.375V18.2227C4.2161 17.875 3.81504 17.4648 3.47128 17H1.61114C1.27501 17 0.999999 16.7187 0.999999 16.375V11.375C0.999999 11.0312 1.27501 10.75 1.61114 10.75ZM6.50022 13.25C6.83634 13.25 7.11135 12.9687 7.11135 12.625C7.11135 12.2812 6.83634 12 6.50022 12C6.16409 12 5.88908 12.2812 5.88908 12.625C5.88908 12.9687 6.16409 13.25 6.50022 13.25ZM13.2227 5.75H8.33362C8.12736 5.75 7.92492 5.76563 7.72631 5.78125C7.72631 5.76953 7.72249 5.76172 7.72249 5.75C7.72249 3.67969 9.36491 2 11.3893 2C13.4137 2 15.0561 3.67969 15.0561 5.75C15.0561 5.83203 15.037 5.91016 15.0332 5.99219C14.4526 5.83984 13.8491 5.75 13.2227 5.75Z" fill="#D7DCE4"/>
</svg>
