<svg width="26" height="26" viewBox="0 0 26 26" fill="none" xmlns="http://www.w3.org/2000/svg">
<path d="M12.9357 22.4719C13.3624 22.4748 13.7731 22.3098 14.0794 22.0125C16.1186 20.0052 20.1882 15.394 20.1882 10.5298C20.1965 8.60141 19.4362 6.7486 18.0749 5.38249C16.7139 4.01606 14.8642 3.24869 12.9356 3.25H12.4761C10.6223 3.38168 8.88846 4.21536 7.62709 5.58049C6.36605 6.94569 5.67241 8.7401 5.68775 10.5987C5.73356 15.4535 9.76631 20.0235 11.7965 22.0166C12.1019 22.3117 12.511 22.4747 12.9355 22.4715L12.9357 22.4719ZM10.0374 10.498C10.0374 9.72937 10.3428 8.9922 10.8865 8.44849C11.4299 7.90512 12.1671 7.59976 12.9357 7.59976C13.7043 7.59976 14.4414 7.90509 14.9848 8.44849C15.5285 8.99219 15.8339 9.72938 15.8339 10.498C15.8339 11.2666 15.5285 12.0038 14.9848 12.5471C14.4414 13.0908 13.7043 13.3962 12.9357 13.3962C12.1671 13.3962 11.4299 13.0909 10.8865 12.5471C10.3428 12.0038 10.0374 11.2666 10.0374 10.498Z" fill="currentColor"/>
</svg>
