<svg width="28" height="28" viewBox="0 0 28 28" fill="none" xmlns="http://www.w3.org/2000/svg">
<path d="M11.3752 4.375H6.12524C5.15875 4.375 4.37524 5.1585 4.37524 6.125V11.375C4.37524 12.3415 5.15875 13.125 6.12524 13.125H11.3752C12.3417 13.125 13.1252 12.3415 13.1252 11.375V6.125C13.1252 5.1585 12.3417 4.375 11.3752 4.375Z" fill="curentColor"/>
<path d="M11.3752 14.875H6.12524C5.15875 14.875 4.37524 15.6585 4.37524 16.625V21.875C4.37524 22.8415 5.15875 23.625 6.12524 23.625H11.3752C12.3417 23.625 13.1252 22.8415 13.1252 21.875V16.625C13.1252 15.6585 12.3417 14.875 11.3752 14.875Z" fill="curentColor"/>
<path d="M21.8752 4.375H16.6252C15.6587 4.375 14.8752 5.1585 14.8752 6.125V11.375C14.8752 12.3415 15.6587 13.125 16.6252 13.125H21.8752C22.8417 13.125 23.6252 12.3415 23.6252 11.375V6.125C23.6252 5.1585 22.8417 4.375 21.8752 4.375Z" fill="curentColor"/>
<path d="M15.7502 20.125C15.9823 20.125 16.2049 20.0328 16.3689 19.8687C16.533 19.7046 16.6252 19.4821 16.6252 19.25V15.75C16.6252 15.5179 16.5331 15.2954 16.369 15.1313C16.2049 14.9672 15.9823 14.875 15.7502 14.875C15.5182 14.875 15.2956 14.9672 15.1315 15.1313C14.9674 15.2954 14.8752 15.5179 14.8752 15.75V19.25C14.8753 19.4821 14.9674 19.7046 15.1315 19.8687C15.2956 20.0328 15.5182 20.125 15.7502 20.125Z" fill="curentColor"/>
<path d="M22.7502 16.625H20.1252V15.75C20.1252 15.5179 20.0331 15.2954 19.869 15.1313C19.7049 14.9672 19.4823 14.875 19.2502 14.875C19.0182 14.875 18.7956 14.9672 18.6315 15.1313C18.4674 15.2954 18.3752 15.5179 18.3752 15.75V21.875H15.7502C15.5182 21.875 15.2956 21.9672 15.1315 22.1313C14.9674 22.2954 14.8752 22.5179 14.8752 22.75C14.8752 22.9821 14.9674 23.2046 15.1315 23.3687C15.2956 23.5328 15.5182 23.625 15.7502 23.625H19.2502C19.4823 23.625 19.7049 23.5328 19.8689 23.3687C20.033 23.2046 20.1252 22.9821 20.1252 22.75V18.375H22.7502C22.9823 18.375 23.2049 18.2828 23.369 18.1187C23.5331 17.9546 23.6252 17.7321 23.6252 17.5C23.6252 17.2679 23.5331 17.0454 23.369 16.8813C23.2049 16.7172 22.9823 16.625 22.7502 16.625ZM22.7502 20.125C22.5182 20.125 22.2956 20.2172 22.1315 20.3813C21.9674 20.5454 21.8753 20.7679 21.8752 21V22.75C21.8752 22.9821 21.9674 23.2046 22.1315 23.3687C22.2956 23.5328 22.5182 23.625 22.7502 23.625C22.9823 23.625 23.2049 23.5328 23.369 23.3687C23.5331 23.2046 23.6252 22.9821 23.6252 22.75V21C23.6252 20.7679 23.533 20.5454 23.3689 20.3813C23.2049 20.2172 22.9823 20.125 22.7502 20.125Z" fill="curentColor"/>
</svg>
