<svg width="24" height="24" viewBox="0 0 24 24" fill="none" xmlns="http://www.w3.org/2000/svg">
<path d="M3.62398 15C5.00872 16.3867 6.85275 17.2191 8.80868 17.3405C10.7646 17.4619 12.6974 16.8638 14.243 15.659L19.561 20.977C19.7496 21.1592 20.0022 21.26 20.2644 21.2577C20.5266 21.2554 20.7774 21.1502 20.9628 20.9648C21.1482 20.7794 21.2534 20.5286 21.2557 20.2664C21.2579 20.0042 21.1571 19.7516 20.975 19.563L15.657 14.245C16.9153 12.6302 17.5102 10.5961 17.3204 8.55777C17.1305 6.51939 16.1703 4.6302 14.6355 3.27547C13.1006 1.92073 11.1068 1.20251 9.06065 1.26728C7.01447 1.33205 5.07007 2.17492 3.62398 3.624C2.87678 4.37083 2.28405 5.25755 1.87964 6.23352C1.47524 7.20948 1.26709 8.25557 1.26709 9.312C1.26709 10.3684 1.47524 11.4145 1.87964 12.3905C2.28405 13.3665 2.87678 14.2532 3.62398 15ZM5.03798 5.04C6.02656 4.05145 7.32731 3.43624 8.71861 3.2992C10.1099 3.16215 11.5057 3.51175 12.6681 4.28843C13.8306 5.0651 14.6878 6.2208 15.0937 7.55862C15.4996 8.89644 15.4291 10.3336 14.8941 11.6253C14.3592 12.9169 13.393 13.9831 12.1601 14.6423C10.9272 15.3014 9.50391 15.5127 8.13271 15.2401C6.7615 14.9675 5.52723 14.2279 4.64018 13.1473C3.75313 12.0668 3.26819 10.712 3.26798 9.314C3.26524 8.51958 3.42029 7.73251 3.72413 6.99848C4.02798 6.26445 4.47456 5.59807 5.03798 5.038V5.04Z" fill="#727272"/>
</svg>
