<svg width="24" height="24" viewBox="0 0 24 24" fill="none" xmlns="http://www.w3.org/2000/svg">
<path d="M22 9.64095C22.1 9.14095 21.7 8.54095 21.2 8.54095L15.5 7.74095L12.9 2.54095C12.8 2.34095 12.7 2.24095 12.5 2.14095C12 1.84095 11.4 2.04095 11.1 2.54095L8.6 7.74095L2.9 8.54095C2.6 8.54095 2.4 8.64095 2.3 8.84095C1.9 9.24095 1.9 9.84095 2.3 10.241L6.4 14.241L5.4 19.941C5.4 20.141 5.4 20.341 5.5 20.541C5.8 21.041 6.4 21.241 6.9 20.941L12 18.241L17.1 20.941C17.2 21.041 17.4 21.041 17.6 21.041C17.7 21.041 17.7 21.041 17.8 21.041C18.3 20.941 18.7 20.441 18.6 19.841L17.6 14.141L21.7 10.141C21.9 10.041 22 9.84095 22 9.64095Z" fill="#D7DCE4"/>
</svg>
