<svg width="24" height="24" viewBox="0 0 24 24" fill="none" xmlns="http://www.w3.org/2000/svg">
<path d="M3.96007 8.4536H18.2047L15.3422 11.3161C14.7259 11.8895 15.1985 12.9973 16.0261 12.9672C16.2735 12.9672 16.521 12.8727 16.7099 12.6838L21.2234 8.17024C21.4882 7.88716 21.5686 7.48006 21.4331 7.11615C21.3737 7.00614 21.3025 6.89942 21.2234 6.80258C21.2234 6.80258 16.7099 2.28901 16.7099 2.28901C15.7975 1.4069 14.4574 2.7409 15.3422 3.65672C15.3422 3.65668 18.2047 6.51922 18.2047 6.51922H3.96007C2.69796 6.53815 2.6814 8.43122 3.96007 8.4536ZM20.5396 15.5464H6.29493L9.15746 12.6838C10.0404 11.7735 8.70494 10.4304 7.78976 11.3162C7.78978 11.3161 3.27622 15.8297 3.27622 15.8297C3.00693 16.1188 2.91373 16.5634 3.0902 16.9231C3.13973 17.0218 3.20901 17.1113 3.27622 17.1974L7.78979 21.7109C8.70225 22.5932 10.0423 21.2589 9.15743 20.3432C9.15746 20.3433 6.29492 17.4807 6.29492 17.4807H20.5396C21.8016 17.462 21.8183 15.5686 20.5396 15.5464Z" fill="#1873B9"/>
</svg>
