<svg width="97" height="29" viewBox="0 0 97 29" fill="none" xmlns="http://www.w3.org/2000/svg">
<path d="M17.5921 15.3718C17.9096 15.4785 18.2792 15.6373 18.7008 15.848C19.44 16.2723 20.0724 16.8526 20.6035 17.5916C21.2386 18.6481 21.5534 19.9154 21.5534 21.3935C21.5534 26.4654 18.4873 29 12.3604 29H0.476349C0.158783 29 0 28.8412 0 28.5237V4.1194C0 3.80189 0.158783 3.64313 0.476349 3.64313H12.9983C15.2185 3.64313 17.0117 4.25352 18.386 5.46607C19.7575 6.68136 20.4474 8.29353 20.4474 10.2999C20.4474 11.4631 20.1819 12.4923 19.6562 13.3901C19.1251 14.2906 18.438 14.9503 17.5921 15.3718ZM12.2044 25.3541C14.0003 25.3541 15.3198 25.064 16.1658 24.4837C17.0089 23.9034 17.4333 22.8989 17.4333 21.4729C17.4333 20.0468 17.0089 19.045 16.1658 18.462C15.3198 17.8817 13.9975 17.5916 12.2044 17.5916H4.75528C4.33094 17.5916 4.12015 17.7504 4.12015 18.0679V24.8833C4.12015 25.2008 4.33094 25.3596 4.75528 25.3596H12.2044V25.3541ZM4.75528 7.289C4.43771 7.289 4.27893 7.44776 4.27893 7.76527V13.4695C4.27893 13.787 4.43771 13.9457 4.75528 13.9457H12.0456C14.7915 13.9457 16.1658 12.8372 16.1658 10.6174C16.1658 8.39755 14.7915 7.289 12.0456 7.289H4.75528ZM43.2711 15.3718C43.5887 15.4785 43.9062 15.6373 44.2211 15.848C45.0643 16.2723 45.6994 16.8526 46.1237 17.5916C46.8629 18.6481 47.2325 19.9154 47.2325 21.3935C47.2325 26.4654 44.1663 29 38.0395 29H26.1527C25.8351 29 25.6763 28.8412 25.6763 28.5237V4.1194C25.6763 3.80189 25.8351 3.64313 26.1527 3.64313H38.6746C40.7881 3.64313 42.5566 4.25352 43.9856 5.46607C45.4119 6.68136 46.1265 8.29353 46.1265 10.2999C46.1265 11.4631 45.8609 12.4923 45.3353 13.3901C44.8015 14.2906 44.1143 14.9503 43.2711 15.3718ZM30.2728 7.289C29.9552 7.289 29.7965 7.44776 29.7965 7.76527V13.4695C29.7965 13.787 29.9552 13.9457 30.2728 13.9457H37.7219C40.4678 13.9457 41.8421 12.8372 41.8421 10.6174C41.8421 8.39755 40.4678 7.289 37.7219 7.289H30.2728ZM37.8807 25.3541C39.6766 25.3541 40.9961 25.064 41.8421 24.4837C42.6853 23.9034 43.1096 22.8989 43.1096 21.4729C43.1096 20.0468 42.6853 19.045 41.8421 18.462C40.9961 17.8817 39.6739 17.5916 37.8807 17.5916H30.2728C29.9552 17.5916 29.7965 17.7504 29.7965 18.0679V24.8833C29.7965 25.2008 29.9552 25.3596 30.2728 25.3596H37.8807V25.3541ZM69.8974 3.96064C70.0014 3.74988 70.1082 3.64313 70.215 3.64313H74.3351C74.4391 3.64313 74.5459 3.69788 74.6527 3.80189C74.7567 3.90864 74.7567 4.01538 74.6527 4.1194L61.4983 28.8412C61.3915 28.948 61.2601 29 61.1013 29C60.9426 29 60.8084 28.948 60.7044 28.8412L47.55 4.1194C47.4433 4.01538 47.4159 3.90864 47.4706 3.80189C47.5227 3.69788 47.6541 3.64313 47.8676 3.64313H51.829C52.0398 3.64313 52.1986 3.74988 52.3053 3.96064L60.7044 19.8087C60.7044 19.9154 60.8084 19.9674 61.022 19.9674C61.2328 19.9674 61.3915 19.9154 61.4983 19.8087L69.8974 3.96064ZM74.6527 25.0394C74.5459 25.2529 74.3871 25.3569 74.1763 25.3569H70.0562C69.9494 25.3569 69.87 25.3049 69.818 25.1981C69.7632 25.0941 69.7386 24.9874 69.7386 24.8806L82.8957 0.158754C82.9997 0.0547428 83.1585 0 83.372 0C83.5828 0 83.7416 0.0547428 83.8484 0.158754L97 24.8806C97 24.9874 96.9726 25.0941 96.9206 25.1981C96.8659 25.3049 96.7865 25.3569 96.6824 25.3569H92.5623C92.3488 25.3569 92.19 25.2529 92.0859 25.0394L83.8429 9.19132C83.7361 8.98056 83.5774 8.87381 83.3666 8.87381C83.153 8.87381 82.9942 8.98056 82.8902 9.19132L74.6527 25.0394Z" fill="white"/>
</svg>
